<?xml version="1.0" standalone="no"?>
<!DOCTYPE svg PUBLIC "-//W3C//DTD SVG 20010904//EN"
 "http://www.w3.org/TR/2001/REC-SVG-20010904/DTD/svg10.dtd">
<svg version="1.0" xmlns="http://www.w3.org/2000/svg"
 width="540.000000pt" height="540.000000pt" viewBox="0 0 540.000000 540.000000"
 preserveAspectRatio="xMidYMid meet">
<metadata>
Created by potrace 1.14, written by Peter Selinger 2001-2017
</metadata>
<g transform="translate(0.000000,540.000000) scale(0.100000,-0.100000)"
fill="#000000" stroke="none">
<path d="M2499 5395 c-2 -1 -35 -6 -74 -10 -105 -10 -122 -12 -265 -39 -206
-39 -494 -140 -695 -244 -522 -270 -952 -713 -1200 -1236 -76 -161 -159 -389
-179 -492 -2 -10 -11 -46 -19 -79 -9 -33 -18 -76 -21 -95 -3 -19 -10 -62 -16
-95 -35 -208 -35 -595 0 -810 9 -55 13 -77 24 -137 11 -58 29 -130 53 -208 14
-47 26 -89 28 -95 3 -13 8 -26 58 -155 80 -205 200 -421 339 -608 242 -327
564 -601 926 -789 287 -149 619 -250 947 -287 112 -12 478 -14 580 -3 60 7
127 17 155 22 14 3 41 8 60 11 361 63 780 244 1090 472 155 114 332 276 440
402 12 14 31 36 43 50 75 87 203 269 253 360 10 19 22 37 25 40 22 19 159 323
204 455 23 65 34 105 69 238 51 194 74 418 71 677 -3 218 -7 261 -49 500 -20
119 -87 338 -143 475 -162 393 -397 722 -724 1016 -102 92 -304 238 -399 290
-25 13 -47 26 -50 29 -11 12 -259 131 -330 158 -165 65 -367 123 -510 148 -25
4 -47 8 -50 9 -3 1 -34 5 -70 9 -36 5 -74 10 -85 13 -23 5 -481 13 -486 8z"/>
</g>
</svg>
