<?xml version="1.0" standalone="no"?>
<!DOCTYPE svg PUBLIC "-//W3C//DTD SVG 20010904//EN"
 "http://www.w3.org/TR/2001/REC-SVG-20010904/DTD/svg10.dtd">
<svg version="1.0" xmlns="http://www.w3.org/2000/svg"
 width="754.000000pt" height="754.000000pt" viewBox="0 0 754.000000 754.000000"
 preserveAspectRatio="xMidYMid meet">
<metadata>
Created by potrace 1.14, written by Peter Selinger 2001-2017
</metadata>
<g transform="translate(0.000000,754.000000) scale(0.100000,-0.100000)"
fill="#000000" stroke="none">
<path d="M3538 7535 c-1 -1 -39 -5 -83 -9 -85 -6 -310 -34 -335 -41 -8 -3 -32
-7 -54 -11 -36 -5 -51 -8 -93 -18 -10 -2 -49 -11 -88 -20 -394 -92 -819 -275
-1170 -504 -88 -58 -282 -197 -295 -212 -3 -3 -18 -16 -34 -28 -95 -73 -325
-293 -436 -417 -127 -142 -329 -416 -406 -550 -6 -11 -28 -49 -49 -85 -221
-385 -392 -872 -450 -1285 -3 -22 -8 -53 -10 -70 -21 -133 -30 -285 -30 -515
1 -370 32 -623 116 -945 81 -309 236 -693 371 -913 21 -34 38 -65 38 -67 0
-20 275 -411 324 -461 6 -6 29 -33 51 -60 98 -119 284 -304 415 -414 36 -30
67 -57 70 -60 16 -17 150 -116 245 -181 369 -254 758 -432 1190 -544 177 -46
308 -70 550 -100 183 -22 598 -23 780 -1 17 2 54 7 83 10 69 9 344 56 352 61
4 2 17 6 31 8 113 21 430 122 599 192 170 70 427 206 589 312 82 53 250 171
261 183 3 3 28 23 55 44 233 184 474 437 680 711 75 100 161 233 253 393 156
271 332 733 388 1017 2 11 6 31 9 45 25 118 46 251 61 395 17 166 23 505 10
645 -17 193 -30 288 -57 430 -38 197 -71 323 -133 507 -64 187 -72 210 -152
383 -27 58 -56 116 -65 130 -9 14 -20 36 -24 50 -4 14 -13 32 -20 40 -6 8 -28
45 -48 81 -175 318 -529 743 -817 979 -30 25 -61 51 -68 58 -61 57 -337 248
-472 327 -207 121 -471 241 -703 319 -122 41 -365 107 -447 121 -19 3 -84 15
-145 25 -60 11 -141 22 -178 25 -38 4 -83 8 -100 11 -35 6 -553 14 -559 9z"/>
</g>
</svg>
