<svg width="11" height="123" viewBox="0 0 11 123" fill="none" xmlns="http://www.w3.org/2000/svg">
<path d="M5.29102 7.31543V5.62695H9.65234V9.61914C9.22852 10.0293 8.61328 10.3916 7.80664 10.7061C7.00456 11.016 6.19108 11.1709 5.36621 11.1709C4.31803 11.1709 3.4043 10.9521 2.625 10.5146C1.8457 10.0726 1.26009 9.44368 0.868164 8.62793C0.476237 7.80762 0.280273 6.91667 0.280273 5.95508C0.280273 4.91146 0.499023 3.98405 0.936523 3.17285C1.37402 2.36165 2.01432 1.73958 2.85742 1.30664C3.5 0.973958 4.2998 0.807617 5.25684 0.807617C6.50098 0.807617 7.47168 1.06966 8.16895 1.59375C8.87077 2.11328 9.32194 2.83333 9.52246 3.75391L7.5127 4.12988C7.37142 3.6377 7.10482 3.25033 6.71289 2.96777C6.32552 2.68066 5.84017 2.53711 5.25684 2.53711C4.37272 2.53711 3.66862 2.81738 3.14453 3.37793C2.625 3.93848 2.36523 4.77018 2.36523 5.87305C2.36523 7.0625 2.62956 7.95573 3.1582 8.55273C3.68685 9.14518 4.37956 9.44141 5.23633 9.44141C5.66016 9.44141 6.08398 9.35938 6.50781 9.19531C6.9362 9.02669 7.30306 8.82389 7.6084 8.58691V7.31543H5.29102Z" fill="black"/>
<path d="M10.0557 24H7.85449L6.97949 21.7236H2.97363L2.14648 24H0L3.90332 13.9785H6.04297L10.0557 24ZM6.33008 20.0352L4.94922 16.3164L3.5957 20.0352H6.33008Z" fill="black"/>
<path d="M1.02539 26.9785H5.03125C5.82422 26.9785 6.41439 27.0127 6.80176 27.0811C7.19368 27.1449 7.54232 27.2816 7.84766 27.4912C8.15755 27.7008 8.41504 27.9811 8.62012 28.332C8.8252 28.6784 8.92773 29.068 8.92773 29.501C8.92773 29.9704 8.80013 30.401 8.54492 30.793C8.29427 31.1849 7.95247 31.4788 7.51953 31.6748C8.13021 31.8525 8.59961 32.1556 8.92773 32.584C9.25586 33.0124 9.41992 33.516 9.41992 34.0947C9.41992 34.5505 9.31283 34.9948 9.09863 35.4277C8.889 35.8561 8.59961 36.2002 8.23047 36.46C7.86589 36.7152 7.41471 36.8724 6.87695 36.9316C6.53971 36.9681 5.72624 36.9909 4.43652 37H1.02539V26.9785ZM3.04883 28.6465V30.9639H4.375C5.16341 30.9639 5.65332 30.9525 5.84473 30.9297C6.19108 30.8887 6.46224 30.7702 6.6582 30.5742C6.85872 30.3737 6.95898 30.1117 6.95898 29.7881C6.95898 29.4782 6.8724 29.2275 6.69922 29.0361C6.5306 28.8402 6.27767 28.7217 5.94043 28.6807C5.73991 28.6579 5.16341 28.6465 4.21094 28.6465H3.04883ZM3.04883 32.6318V35.3115H4.92188C5.65104 35.3115 6.11361 35.291 6.30957 35.25C6.61035 35.1953 6.85417 35.0632 7.04102 34.8535C7.23242 34.6393 7.32812 34.3545 7.32812 33.999C7.32812 33.6982 7.25521 33.443 7.10938 33.2334C6.96354 33.0238 6.75163 32.8711 6.47363 32.7754C6.2002 32.6797 5.60319 32.6318 4.68262 32.6318H3.04883Z" fill="black"/>
<path d="M1.4082 50.43V40.4085H8.83887V42.1038H3.43164V44.3255H8.46289V46.014H3.43164V48.7415H9.03027V50.43H1.4082Z" fill="black"/>
<path d="M7.43066 67.0536L9.39258 67.6756C9.0918 68.7694 8.59049 69.5828 7.88867 70.1161C7.19141 70.6447 6.30501 70.909 5.22949 70.909C3.89876 70.909 2.80501 70.4556 1.94824 69.5487C1.09147 68.6372 0.663086 67.3931 0.663086 65.8162C0.663086 64.1483 1.09375 62.854 1.95508 61.9334C2.81641 61.0083 3.94889 60.5457 5.35254 60.5457C6.57845 60.5457 7.57422 60.908 8.33984 61.6327C8.79557 62.061 9.13737 62.6763 9.36523 63.4784L7.3623 63.9569C7.24382 63.4373 6.99544 63.0272 6.61719 62.7264C6.24349 62.4256 5.78776 62.2752 5.25 62.2752C4.50716 62.2752 3.90332 62.5418 3.43848 63.075C2.97819 63.6082 2.74805 64.4718 2.74805 65.6659C2.74805 66.9328 2.97591 67.8351 3.43164 68.3729C3.88737 68.9106 4.47982 69.1795 5.20898 69.1795C5.74674 69.1795 6.20931 69.0086 6.59668 68.6668C6.98405 68.325 7.26204 67.7873 7.43066 67.0536Z" fill="black"/>
<path d="M10.0557 83.7381H7.85449L6.97949 81.4618H2.97363L2.14648 83.7381H0L3.90332 73.7166H6.04297L10.0557 83.7381ZM6.33008 79.7733L4.94922 76.0545L3.5957 79.7733H6.33008Z" fill="black"/>
<path d="M0.21875 96.7381V86.7166H3.24707L5.06543 93.5526L6.86328 86.7166H9.89844V96.7381H8.01855V88.8494L6.0293 96.7381H4.08105L2.09863 88.8494V96.7381H0.21875Z" fill="black"/>
<path d="M1.4082 109.738V99.7166H4.65527C5.88574 99.7166 6.68783 99.7668 7.06152 99.867C7.63574 100.017 8.11654 100.346 8.50391 100.851C8.89128 101.353 9.08496 102.002 9.08496 102.8C9.08496 103.415 8.97331 103.932 8.75 104.351C8.52669 104.771 8.24186 105.101 7.89551 105.343C7.55371 105.58 7.20508 105.737 6.84961 105.814C6.36654 105.91 5.66699 105.958 4.75098 105.958H3.43164V109.738H1.4082ZM3.43164 101.412V104.256H4.53906C5.33659 104.256 5.86979 104.203 6.13867 104.098C6.40755 103.994 6.61719 103.83 6.76758 103.606C6.92253 103.383 7 103.123 7 102.827C7 102.462 6.8929 102.162 6.67871 101.925C6.46452 101.688 6.19336 101.54 5.86523 101.48C5.6237 101.435 5.13835 101.412 4.40918 101.412H3.43164Z" fill="black"/>
<path d="M0.21875 117.789C0.21875 116.768 0.371419 115.911 0.676758 115.219C0.904622 114.708 1.21452 114.25 1.60645 113.845C2.00293 113.439 2.43587 113.138 2.90527 112.942C3.52962 112.678 4.24967 112.546 5.06543 112.546C6.54199 112.546 7.72233 113.004 8.60645 113.92C9.49512 114.836 9.93945 116.11 9.93945 117.741C9.93945 119.359 9.49967 120.626 8.62012 121.542C7.74056 122.453 6.56478 122.909 5.09277 122.909C3.60254 122.909 2.41764 122.456 1.53809 121.549C0.658529 120.637 0.21875 119.384 0.21875 117.789ZM2.30371 117.721C2.30371 118.855 2.56576 119.717 3.08984 120.305C3.61393 120.888 4.2793 121.18 5.08594 121.18C5.89258 121.18 6.55339 120.89 7.06836 120.311C7.58789 119.728 7.84766 118.855 7.84766 117.693C7.84766 116.545 7.59473 115.688 7.08887 115.123C6.58757 114.558 5.91992 114.275 5.08594 114.275C4.25195 114.275 3.57975 114.562 3.06934 115.137C2.55892 115.706 2.30371 116.568 2.30371 117.721Z" fill="black"/>
</svg>
