<svg width="11" height="168" viewBox="0 0 11 168" fill="none" xmlns="http://www.w3.org/2000/svg">
<path d="M5.29102 7.31543V5.62695H9.65234V9.61914C9.22852 10.0293 8.61328 10.3916 7.80664 10.7061C7.00456 11.016 6.19108 11.1709 5.36621 11.1709C4.31803 11.1709 3.4043 10.9521 2.625 10.5146C1.8457 10.0726 1.26009 9.44368 0.868164 8.62793C0.476237 7.80762 0.280273 6.91667 0.280273 5.95508C0.280273 4.91146 0.499023 3.98405 0.936523 3.17285C1.37402 2.36165 2.01432 1.73958 2.85742 1.30664C3.5 0.973958 4.2998 0.807617 5.25684 0.807617C6.50098 0.807617 7.47168 1.06966 8.16895 1.59375C8.87077 2.11328 9.32194 2.83333 9.52246 3.75391L7.5127 4.12988C7.37142 3.6377 7.10482 3.25033 6.71289 2.96777C6.32552 2.68066 5.84017 2.53711 5.25684 2.53711C4.37272 2.53711 3.66862 2.81738 3.14453 3.37793C2.625 3.93848 2.36523 4.77018 2.36523 5.87305C2.36523 7.0625 2.62956 7.95573 3.1582 8.55273C3.68685 9.14518 4.37956 9.44141 5.23633 9.44141C5.66016 9.44141 6.08398 9.35938 6.50781 9.19531C6.9362 9.02669 7.30306 8.82389 7.6084 8.58691V7.31543H5.29102Z" fill="black"/>
<path d="M10.0557 24H7.85449L6.97949 21.7236H2.97363L2.14648 24H0L3.90332 13.9785H6.04297L10.0557 24ZM6.33008 20.0352L4.94922 16.3164L3.5957 20.0352H6.33008Z" fill="black"/>
<path d="M1.02539 26.9785H5.03125C5.82422 26.9785 6.41439 27.0127 6.80176 27.0811C7.19368 27.1449 7.54232 27.2816 7.84766 27.4912C8.15755 27.7008 8.41504 27.9811 8.62012 28.332C8.8252 28.6784 8.92773 29.068 8.92773 29.501C8.92773 29.9704 8.80013 30.401 8.54492 30.793C8.29427 31.1849 7.95247 31.4788 7.51953 31.6748C8.13021 31.8525 8.59961 32.1556 8.92773 32.584C9.25586 33.0124 9.41992 33.516 9.41992 34.0947C9.41992 34.5505 9.31283 34.9948 9.09863 35.4277C8.889 35.8561 8.59961 36.2002 8.23047 36.46C7.86589 36.7152 7.41471 36.8724 6.87695 36.9316C6.53971 36.9681 5.72624 36.9909 4.43652 37H1.02539V26.9785ZM3.04883 28.6465V30.9639H4.375C5.16341 30.9639 5.65332 30.9525 5.84473 30.9297C6.19108 30.8887 6.46224 30.7702 6.6582 30.5742C6.85872 30.3737 6.95898 30.1117 6.95898 29.7881C6.95898 29.4782 6.8724 29.2275 6.69922 29.0361C6.5306 28.8402 6.27767 28.7217 5.94043 28.6807C5.73991 28.6579 5.16341 28.6465 4.21094 28.6465H3.04883ZM3.04883 32.6318V35.3115H4.92188C5.65104 35.3115 6.11361 35.291 6.30957 35.25C6.61035 35.1953 6.85417 35.0632 7.04102 34.8535C7.23242 34.6393 7.32812 34.3545 7.32812 33.999C7.32812 33.6982 7.25521 33.443 7.10938 33.2334C6.96354 33.0238 6.75163 32.8711 6.47363 32.7754C6.2002 32.6797 5.60319 32.6318 4.68262 32.6318H3.04883Z" fill="black"/>
<path d="M1.02539 50V39.9785H5.28418C6.35514 39.9785 7.13216 40.0697 7.61523 40.252C8.10286 40.4297 8.49251 40.7487 8.78418 41.209C9.07585 41.6693 9.22168 42.1956 9.22168 42.7881C9.22168 43.54 9.00065 44.1621 8.55859 44.6543C8.11654 45.1419 7.45573 45.4495 6.57617 45.5771C7.01367 45.8324 7.3737 46.1126 7.65625 46.418C7.94336 46.7233 8.32845 47.2656 8.81152 48.0449L10.0352 50H7.61523L6.15234 47.8193C5.63281 47.04 5.27734 46.5501 5.08594 46.3496C4.89453 46.1445 4.69173 46.0055 4.47754 45.9326C4.26335 45.8551 3.92383 45.8164 3.45898 45.8164H3.04883V50H1.02539ZM3.04883 44.2168H4.5459C5.5166 44.2168 6.12272 44.1758 6.36426 44.0938C6.60579 44.0117 6.79492 43.8704 6.93164 43.6699C7.06836 43.4694 7.13672 43.2188 7.13672 42.918C7.13672 42.5807 7.04557 42.3096 6.86328 42.1045C6.68555 41.8949 6.43262 41.7627 6.10449 41.708C5.94043 41.6852 5.44824 41.6738 4.62793 41.6738H3.04883V44.2168Z" fill="black"/>
<path d="M1.4082 76V65.9785H8.83887V67.6738H3.43164V69.8955H8.46289V71.584H3.43164V74.3115H9.03027V76H1.4082Z" fill="black"/>
<path d="M1.85254 89V79.0605H3.87598V87.3115H8.90723V89H1.85254Z" fill="black"/>
<path d="M7.43066 111.315L9.39258 111.938C9.0918 113.031 8.59049 113.845 7.88867 114.378C7.19141 114.907 6.30501 115.171 5.22949 115.171C3.89876 115.171 2.80501 114.717 1.94824 113.811C1.09147 112.899 0.663086 111.655 0.663086 110.078C0.663086 108.41 1.09375 107.116 1.95508 106.195C2.81641 105.27 3.94889 104.808 5.35254 104.808C6.57845 104.808 7.57422 105.17 8.33984 105.895C8.79557 106.323 9.13737 106.938 9.36523 107.74L7.3623 108.219C7.24382 107.699 6.99544 107.289 6.61719 106.988C6.24349 106.688 5.78776 106.537 5.25 106.537C4.50716 106.537 3.90332 106.804 3.43848 107.337C2.97819 107.87 2.74805 108.734 2.74805 109.928C2.74805 111.195 2.97591 112.097 3.43164 112.635C3.88737 113.173 4.47982 113.441 5.20898 113.441C5.74674 113.441 6.20931 113.271 6.59668 112.929C6.98405 112.587 7.26204 112.049 7.43066 111.315Z" fill="black"/>
<path d="M10.0557 128H7.85449L6.97949 125.724H2.97363L2.14648 128H0L3.90332 117.979H6.04297L10.0557 128ZM6.33008 124.035L4.94922 120.316L3.5957 124.035H6.33008Z" fill="black"/>
<path d="M0.21875 141V130.979H3.24707L5.06543 137.814L6.86328 130.979H9.89844V141H8.01855V133.111L6.0293 141H4.08105L2.09863 133.111V141H0.21875Z" fill="black"/>
<path d="M1.4082 154V143.979H4.65527C5.88574 143.979 6.68783 144.029 7.06152 144.129C7.63574 144.279 8.11654 144.607 8.50391 145.113C8.89128 145.615 9.08496 146.264 9.08496 147.062C9.08496 147.677 8.97331 148.194 8.75 148.613C8.52669 149.033 8.24186 149.363 7.89551 149.604C7.55371 149.841 7.20508 149.999 6.84961 150.076C6.36654 150.172 5.66699 150.22 4.75098 150.22H3.43164V154H1.4082ZM3.43164 145.674V148.518H4.53906C5.33659 148.518 5.86979 148.465 6.13867 148.36C6.40755 148.256 6.61719 148.091 6.76758 147.868C6.92253 147.645 7 147.385 7 147.089C7 146.724 6.8929 146.424 6.67871 146.187C6.46452 145.95 6.19336 145.801 5.86523 145.742C5.6237 145.697 5.13835 145.674 4.40918 145.674H3.43164Z" fill="black"/>
<path d="M0.21875 162.051C0.21875 161.03 0.371419 160.173 0.676758 159.48C0.904622 158.97 1.21452 158.512 1.60645 158.106C2.00293 157.701 2.43587 157.4 2.90527 157.204C3.52962 156.94 4.24967 156.808 5.06543 156.808C6.54199 156.808 7.72233 157.266 8.60645 158.182C9.49512 159.098 9.93945 160.371 9.93945 162.003C9.93945 163.621 9.49967 164.888 8.62012 165.804C7.74056 166.715 6.56478 167.171 5.09277 167.171C3.60254 167.171 2.41764 166.717 1.53809 165.811C0.658529 164.899 0.21875 163.646 0.21875 162.051ZM2.30371 161.982C2.30371 163.117 2.56576 163.979 3.08984 164.566C3.61393 165.15 4.2793 165.441 5.08594 165.441C5.89258 165.441 6.55339 165.152 7.06836 164.573C7.58789 163.99 7.84766 163.117 7.84766 161.955C7.84766 160.807 7.59473 159.95 7.08887 159.385C6.58757 158.82 5.91992 158.537 5.08594 158.537C4.25195 158.537 3.57975 158.824 3.06934 159.398C2.55892 159.968 2.30371 160.829 2.30371 161.982Z" fill="black"/>
<path d="M2.80493 62.5667L5.39868 52.8867L7.35317 53.4104L4.75942 63.0904L2.80493 62.5667Z" fill="black"/>
</svg>
