<svg width="21" height="178" viewBox="0 0 21 178" fill="none" xmlns="http://www.w3.org/2000/svg">
<rect width="20.0557" height="176.363" transform="translate(0.941406 0.807617)" fill="#F6C745"/>
<path d="M11.2324 12.3154V10.627H15.5938V14.6191C15.1699 15.0293 14.5547 15.3916 13.748 15.7061C12.946 16.016 12.1325 16.1709 11.3076 16.1709C10.2594 16.1709 9.3457 15.9521 8.56641 15.5146C7.78711 15.0726 7.2015 14.4437 6.80957 13.6279C6.41764 12.8076 6.22168 11.9167 6.22168 10.9551C6.22168 9.91146 6.44043 8.98405 6.87793 8.17285C7.31543 7.36165 7.95573 6.73958 8.79883 6.30664C9.44141 5.97396 10.2412 5.80762 11.1982 5.80762C12.4424 5.80762 13.4131 6.06966 14.1104 6.59375C14.8122 7.11328 15.2633 7.83333 15.4639 8.75391L13.4541 9.12988C13.3128 8.6377 13.0462 8.25033 12.6543 7.96777C12.2669 7.68066 11.7816 7.53711 11.1982 7.53711C10.3141 7.53711 9.61003 7.81738 9.08594 8.37793C8.56641 8.93848 8.30664 9.77018 8.30664 10.873C8.30664 12.0625 8.57096 12.9557 9.09961 13.5527C9.62826 14.1452 10.321 14.4414 11.1777 14.4414C11.6016 14.4414 12.0254 14.3594 12.4492 14.1953C12.8776 14.0267 13.2445 13.8239 13.5498 13.5869V12.3154H11.2324Z" fill="black"/>
<path d="M15.9971 29H13.7959L12.9209 26.7236H8.91504L8.08789 29H5.94141L9.84473 18.9785H11.9844L15.9971 29ZM12.2715 25.0352L10.8906 21.3164L9.53711 25.0352H12.2715Z" fill="black"/>
<path d="M6.9668 31.9785H10.9727C11.7656 31.9785 12.3558 32.0127 12.7432 32.0811C13.1351 32.1449 13.4837 32.2816 13.7891 32.4912C14.099 32.7008 14.3564 32.9811 14.5615 33.332C14.7666 33.6784 14.8691 34.068 14.8691 34.501C14.8691 34.9704 14.7415 35.401 14.4863 35.793C14.2357 36.1849 13.8939 36.4788 13.4609 36.6748C14.0716 36.8525 14.541 37.1556 14.8691 37.584C15.1973 38.0124 15.3613 38.516 15.3613 39.0947C15.3613 39.5505 15.2542 39.9948 15.04 40.4277C14.8304 40.8561 14.541 41.2002 14.1719 41.46C13.8073 41.7152 13.3561 41.8724 12.8184 41.9316C12.4811 41.9681 11.6676 41.9909 10.3779 42H6.9668V31.9785ZM8.99023 33.6465V35.9639H10.3164C11.1048 35.9639 11.5947 35.9525 11.7861 35.9297C12.1325 35.8887 12.4036 35.7702 12.5996 35.5742C12.8001 35.3737 12.9004 35.1117 12.9004 34.7881C12.9004 34.4782 12.8138 34.2275 12.6406 34.0361C12.472 33.8402 12.2191 33.7217 11.8818 33.6807C11.6813 33.6579 11.1048 33.6465 10.1523 33.6465H8.99023ZM8.99023 37.6318V40.3115H10.8633C11.5924 40.3115 12.055 40.291 12.251 40.25C12.5518 40.1953 12.7956 40.0632 12.9824 39.8535C13.1738 39.6393 13.2695 39.3545 13.2695 38.999C13.2695 38.6982 13.1966 38.443 13.0508 38.2334C12.9049 38.0238 12.693 37.8711 12.415 37.7754C12.1416 37.6797 11.5446 37.6318 10.624 37.6318H8.99023Z" fill="black"/>
<path d="M6.9668 55V44.9785H11.2256C12.2965 44.9785 13.0736 45.0697 13.5566 45.252C14.0443 45.4297 14.4339 45.7487 14.7256 46.209C15.0173 46.6693 15.1631 47.1956 15.1631 47.7881C15.1631 48.54 14.9421 49.1621 14.5 49.6543C14.0579 50.1419 13.3971 50.4495 12.5176 50.5771C12.9551 50.8324 13.3151 51.1126 13.5977 51.418C13.8848 51.7233 14.2699 52.2656 14.7529 53.0449L15.9766 55H13.5566L12.0938 52.8193C11.5742 52.04 11.2188 51.5501 11.0273 51.3496C10.8359 51.1445 10.6331 51.0055 10.4189 50.9326C10.2048 50.8551 9.86523 50.8164 9.40039 50.8164H8.99023V55H6.9668ZM8.99023 49.2168H10.4873C11.458 49.2168 12.0641 49.1758 12.3057 49.0938C12.5472 49.0117 12.7363 48.8704 12.873 48.6699C13.0098 48.4694 13.0781 48.2188 13.0781 47.918C13.0781 47.5807 12.987 47.3096 12.8047 47.1045C12.627 46.8949 12.374 46.7627 12.0459 46.708C11.8818 46.6852 11.3896 46.6738 10.5693 46.6738H8.99023V49.2168Z" fill="black"/>
<path d="M7.34961 81V70.9785H14.7803V72.6738H9.37305V74.8955H14.4043V76.584H9.37305V79.3115H14.9717V81H7.34961Z" fill="black"/>
<path d="M7.79395 94V84.0605H9.81738V92.3115H14.8486V94H7.79395Z" fill="black"/>
<path d="M13.3721 116.315L15.334 116.938C15.0332 118.031 14.5319 118.845 13.8301 119.378C13.1328 119.907 12.2464 120.171 11.1709 120.171C9.84017 120.171 8.74642 119.717 7.88965 118.811C7.03288 117.899 6.60449 116.655 6.60449 115.078C6.60449 113.41 7.03516 112.116 7.89648 111.195C8.75781 110.27 9.8903 109.808 11.2939 109.808C12.5199 109.808 13.5156 110.17 14.2812 110.895C14.737 111.323 15.0788 111.938 15.3066 112.74L13.3037 113.219C13.1852 112.699 12.9368 112.289 12.5586 111.988C12.1849 111.688 11.7292 111.537 11.1914 111.537C10.4486 111.537 9.84473 111.804 9.37988 112.337C8.9196 112.87 8.68945 113.734 8.68945 114.928C8.68945 116.195 8.91732 117.097 9.37305 117.635C9.82878 118.173 10.4212 118.441 11.1504 118.441C11.6882 118.441 12.1507 118.271 12.5381 117.929C12.9255 117.587 13.2035 117.049 13.3721 116.315Z" fill="black"/>
<path d="M15.9971 133H13.7959L12.9209 130.724H8.91504L8.08789 133H5.94141L9.84473 122.979H11.9844L15.9971 133ZM12.2715 129.035L10.8906 125.316L9.53711 129.035H12.2715Z" fill="black"/>
<path d="M6.16016 146V135.979H9.18848L11.0068 142.814L12.8047 135.979H15.8398V146H13.96V138.111L11.9707 146H10.0225L8.04004 138.111V146H6.16016Z" fill="black"/>
<path d="M7.34961 159V148.979H10.5967C11.8271 148.979 12.6292 149.029 13.0029 149.129C13.5771 149.279 14.0579 149.607 14.4453 150.113C14.8327 150.615 15.0264 151.264 15.0264 152.062C15.0264 152.677 14.9147 153.194 14.6914 153.613C14.4681 154.033 14.1833 154.363 13.8369 154.604C13.4951 154.841 13.1465 154.999 12.791 155.076C12.3079 155.172 11.6084 155.22 10.6924 155.22H9.37305V159H7.34961ZM9.37305 150.674V153.518H10.4805C11.278 153.518 11.8112 153.465 12.0801 153.36C12.349 153.256 12.5586 153.091 12.709 152.868C12.8639 152.645 12.9414 152.385 12.9414 152.089C12.9414 151.724 12.8343 151.424 12.6201 151.187C12.4059 150.95 12.1348 150.801 11.8066 150.742C11.5651 150.697 11.0798 150.674 10.3506 150.674H9.37305Z" fill="black"/>
<path d="M6.16016 167.051C6.16016 166.03 6.31283 165.173 6.61816 164.48C6.84603 163.97 7.15592 163.512 7.54785 163.106C7.94434 162.701 8.37728 162.4 8.84668 162.204C9.47103 161.94 10.1911 161.808 11.0068 161.808C12.4834 161.808 13.6637 162.266 14.5479 163.182C15.4365 164.098 15.8809 165.371 15.8809 167.003C15.8809 168.621 15.4411 169.888 14.5615 170.804C13.682 171.715 12.5062 172.171 11.0342 172.171C9.54395 172.171 8.35905 171.717 7.47949 170.811C6.59993 169.899 6.16016 168.646 6.16016 167.051ZM8.24512 166.982C8.24512 168.117 8.50716 168.979 9.03125 169.566C9.55534 170.15 10.2207 170.441 11.0273 170.441C11.834 170.441 12.4948 170.152 13.0098 169.573C13.5293 168.99 13.7891 168.117 13.7891 166.955C13.7891 165.807 13.5361 164.95 13.0303 164.385C12.529 163.82 11.8613 163.537 11.0273 163.537C10.1934 163.537 9.52116 163.824 9.01074 164.398C8.50033 164.968 8.24512 165.829 8.24512 166.982Z" fill="black"/>
<path d="M8.74634 67.5667L11.3401 57.8867L13.2946 58.4104L10.7008 68.0904L8.74634 67.5667Z" fill="black"/>
</svg>
