<svg width="192" height="22" viewBox="0 0 192 22" fill="none" xmlns="http://www.w3.org/2000/svg">
<path d="M151.36 18.814L155.807 2.21973L161.183 3.66042C163.221 4.20636 164.527 4.64525 165.101 4.97707C165.985 5.48088 166.636 6.23753 167.053 7.24705C167.472 8.24901 167.504 9.41029 167.15 10.7309C166.878 11.7496 166.463 12.5566 165.907 13.1518C165.352 13.747 164.733 14.1677 164.053 14.414C163.381 14.6547 162.734 14.7604 162.111 14.731C161.269 14.6751 160.089 14.444 158.573 14.0375L156.388 13.4522L154.711 19.7118L151.36 18.814ZM158.405 5.92473L157.143 10.6336L158.977 11.125C160.298 11.4788 161.204 11.6286 161.696 11.5744C162.187 11.5201 162.607 11.3414 162.955 11.0384C163.311 10.7374 163.554 10.3416 163.686 9.8511C163.848 9.24739 163.804 8.70182 163.554 8.21438C163.305 7.72693 162.921 7.36137 162.404 7.11768C162.025 6.93505 161.231 6.68197 160.024 6.35845L158.405 5.92473Z" fill="black"/>
<path d="M128.884 17.3863L133.33 0.791992L138.345 2.13563L138.323 14.2619L144.333 3.7401L149.358 5.08677L144.912 21.6811L141.799 20.847L145.299 7.78435L138.505 19.9644L135.279 19.1L135.497 5.15774L131.996 18.2204L128.884 17.3863Z" fill="black"/>
<path d="M124.997 21.0559L121.353 20.0793L120.914 15.9217L114.28 14.1443L111.901 17.5467L108.347 16.5943L119.256 1.73186L122.799 2.6812L124.997 21.0559ZM120.588 12.8376L119.951 6.06717L116.06 11.6244L120.588 12.8376Z" fill="black"/>
<path d="M102.94 14.064L105.913 15.9645C104.929 17.6422 103.738 18.7668 102.339 19.3383C100.95 19.9043 99.3653 19.9487 97.5844 19.4715C95.3809 18.8811 93.771 17.6449 92.7546 15.7631C91.7403 13.8737 91.583 11.6235 92.2826 9.01245C93.0227 6.2505 94.3101 4.29844 96.1448 3.15625C97.9815 2.00651 100.062 1.74304 102.386 2.36582C104.416 2.90974 105.904 3.95149 106.851 5.49105C107.415 6.4026 107.708 7.573 107.73 9.00225L104.201 8.90593C104.235 7.99308 104.006 7.20372 103.513 6.53783C103.027 5.87397 102.34 5.42274 101.449 5.18414C100.219 4.85455 99.1009 5.02809 98.0946 5.70476C97.0958 6.38345 96.3316 7.71137 95.8018 9.6885C95.2397 11.7864 95.2166 13.3816 95.7326 14.4743C96.2487 15.567 97.1104 16.2751 98.3178 16.5986C99.2083 16.8372 100.05 16.7594 100.843 16.3653C101.636 15.9712 102.335 15.2041 102.94 14.064Z" fill="black"/>
<path d="M61.0282 17.8433L65.4746 1.24902L77.7788 4.54593L77.0267 7.35316L68.073 4.95402L67.0872 8.63284L75.4183 10.8652L74.6692 13.6611L66.3381 11.4287L65.1279 15.9452L74.3985 18.4293L73.6494 21.2252L61.0282 17.8433Z" fill="black"/>
<path d="M45.707 1.07715L52.3402 2.85451C53.6533 3.20634 54.6154 3.52479 55.2265 3.80986C55.8471 4.0894 56.3638 4.47047 56.7764 4.95308C57.1965 5.4377 57.4985 6.01604 57.6824 6.6881C57.8683 7.35261 57.8652 8.04331 57.6731 8.76021C57.4648 9.53748 57.0625 10.194 56.466 10.7297C55.877 11.2675 55.1807 11.6026 54.3768 11.735C55.3092 12.3002 55.952 13.0103 56.3052 13.8653C56.6585 14.7202 56.7067 15.6269 56.4499 16.5853C56.2477 17.3399 55.8732 18.0281 55.3265 18.65C54.7893 19.2663 54.1574 19.7077 53.4309 19.974C52.714 20.2349 51.8971 20.295 50.9804 20.1545C50.4058 20.0653 49.0486 19.7421 46.909 19.1849L41.2606 17.6715L45.707 1.07715ZM48.3175 4.73687L47.2893 8.57416L49.4853 9.16257C50.7908 9.51238 51.6071 9.71088 51.9341 9.75808C52.5259 9.84383 53.0274 9.76794 53.4389 9.5304C53.8599 9.28733 54.1422 8.8979 54.2857 8.36211C54.4232 7.84897 54.3911 7.3955 54.1892 7.00172C53.997 6.60241 53.6307 6.29399 53.0905 6.07644C52.7686 5.94974 51.819 5.67509 50.2418 5.25249L48.3175 4.73687ZM46.5493 11.3361L45.3603 15.7733L48.4618 16.6044C49.6693 16.9279 50.4443 17.0992 50.787 17.1182C51.3093 17.1611 51.7717 17.0504 52.1741 16.7862C52.5861 16.5165 52.8709 16.0873 53.0286 15.4987C53.1621 15.0006 53.1546 14.5457 53.0061 14.1338C52.8576 13.722 52.5745 13.3752 52.1566 13.0934C51.7463 12.8136 50.779 12.4695 49.2546 12.061L46.5493 11.3361Z" fill="black"/>
<path d="M37.1088 21.0559L33.4639 20.0793L33.025 15.9217L26.3918 14.1443L24.0122 17.5467L20.4579 16.5943L31.3677 1.73186L34.9107 2.6812L37.1088 21.0559ZM32.6988 12.8376L32.0623 6.06717L28.1711 11.6244L32.6988 12.8376Z" fill="black"/>
<path d="M10.0074 12.9993L10.7565 10.2034L17.9783 12.1385L16.207 18.7491C15.3232 19.2402 14.1437 19.5671 12.6685 19.7299C11.2029 19.8872 9.78712 19.7828 8.42124 19.4169C6.68559 18.9518 5.26962 18.1842 4.17331 17.1139C3.07903 16.0362 2.38837 14.735 2.10134 13.2103C1.81632 11.6781 1.88713 10.1158 2.31378 8.52354C2.77682 6.79544 3.55053 5.35683 4.63489 4.2077C5.71926 3.05857 7.05552 2.3126 8.64367 1.96977C9.85531 1.704 11.2535 1.78342 12.8382 2.20805C14.8983 2.76006 16.3894 3.62467 17.3115 4.80186C18.2431 5.97353 18.6707 7.36602 18.5943 8.97934L15.0996 8.7102C15.084 7.83252 14.8144 7.07279 14.2908 6.43103C13.7768 5.78374 13.0368 5.33069 12.0709 5.07187C10.6069 4.6796 9.31661 4.83129 8.20008 5.52695C7.09109 6.22464 6.29194 7.48658 5.80261 9.31278C5.27486 11.2824 5.31623 12.8787 5.92671 14.1018C6.53922 15.3174 7.55482 16.1153 8.97353 16.4954C9.67533 16.6835 10.4135 16.7357 11.1881 16.6521C11.9723 16.5629 12.6698 16.3899 13.2805 16.1329L13.8446 14.0275L10.0074 12.9993Z" fill="black"/>
<path d="M170.789 9.18299C171.242 7.49262 171.875 6.14165 172.688 5.13009C173.292 4.38601 174.008 3.7651 174.837 3.26738C175.673 2.77167 176.524 2.46571 177.388 2.34949C178.539 2.18882 179.79 2.28946 181.141 2.6514C183.586 3.30653 185.337 4.58864 186.395 6.49772C187.46 8.40882 187.63 10.7152 186.906 13.4167C186.189 16.0957 184.898 17.9984 183.035 19.125C181.175 20.244 179.025 20.4769 176.588 19.8238C174.12 19.1626 172.359 17.886 171.305 15.9941C170.253 14.0945 170.081 11.8242 170.789 9.18299ZM174.272 9.99487C173.768 11.8739 173.82 13.4164 174.427 14.6224C175.036 15.8209 176.008 16.5991 177.344 16.957C178.68 17.3149 179.902 17.1289 181.012 16.399C182.131 15.6636 182.948 14.3337 183.464 12.4094C183.973 10.5077 183.935 8.97679 183.348 7.81661C182.768 6.65844 181.788 5.89435 180.407 5.52432C179.026 5.15429 177.786 5.33145 176.686 6.05582C175.588 6.77264 174.783 8.08566 174.272 9.99487Z" fill="black"/>
</svg>
