<svg width="13" height="123" viewBox="0 0 13 123" fill="none" xmlns="http://www.w3.org/2000/svg">
<path d="M2 109.814L4.59375 100.134L7.73018 100.974C8.91872 101.293 9.6805 101.549 10.0155 101.742C10.5312 102.036 10.9107 102.478 11.154 103.066C11.3984 103.651 11.4174 104.328 11.211 105.099C11.0518 105.693 10.81 106.164 10.4858 106.511C10.1616 106.858 9.80096 107.103 9.4039 107.247C9.01241 107.388 8.63496 107.449 8.27156 107.432C7.78017 107.399 7.09208 107.265 6.20728 107.028L4.9329 106.686L3.95449 110.338L2 109.814ZM6.10946 102.295L5.37344 105.042L6.44313 105.329C7.21348 105.535 7.74208 105.622 8.02893 105.591C8.31578 105.559 8.56073 105.455 8.76379 105.278C8.97126 105.102 9.11332 104.872 9.18999 104.585C9.28435 104.233 9.25875 103.915 9.1132 103.631C8.96764 103.346 8.74405 103.133 8.44244 102.991C8.22093 102.884 7.75801 102.737 7.05369 102.548L6.10946 102.295Z" fill="black"/>
<path d="M0.745604 95.7933L3.33936 86.1133L6.26449 86.8971L6.25162 93.9707L9.75748 87.833L12.6892 88.6186L10.0955 98.2986L8.27964 97.812L10.3214 90.1922L6.35816 97.2972L4.4763 96.7929L4.60317 88.66L2.56143 96.2798L0.745604 95.7933Z" fill="black"/>
<path d="M11.0597 84.8685L8.93354 84.2988L8.67752 81.8736L4.80815 80.8368L3.42002 82.8215L1.34668 82.2659L7.71075 73.5962L9.77749 74.15L11.0597 84.8685ZM8.48724 80.0745L8.11592 76.1251L5.84604 79.3668L8.48724 80.0745Z" fill="black"/>
<path d="M8.69541 68.354L10.4295 69.4627C9.85585 70.4413 9.16109 71.0973 8.34517 71.4307C7.53484 71.7609 6.61024 71.7868 5.57137 71.5084C4.28598 71.164 3.34686 70.4429 2.75401 69.3452C2.16234 68.243 2.07055 66.9304 2.47867 65.4073C2.91037 63.7962 3.66134 62.6575 4.73158 61.9912C5.803 61.3205 7.01662 61.1668 8.37244 61.5301C9.55658 61.8474 10.4246 62.4551 10.9766 63.3532C11.306 63.8849 11.4769 64.5676 11.4894 65.4014L9.43086 65.3452C9.45087 64.8127 9.31712 64.3522 9.0296 63.9638C8.74648 63.5765 8.3452 63.3133 7.82577 63.1741C7.10824 62.9819 6.45597 63.0831 5.86896 63.4778C5.28636 63.8737 4.84054 64.6484 4.53151 65.8017C4.2036 67.0254 4.19016 67.956 4.49118 68.5934C4.79219 69.2308 5.29486 69.6438 5.99919 69.8326C6.51862 69.9718 7.00966 69.9264 7.47229 69.6965C7.93493 69.4666 8.34263 69.0191 8.69541 68.354Z" fill="black"/>
<path d="M1.73975 49.2728L4.3335 39.5928L11.511 41.516L11.0722 43.1535L5.84921 41.754L5.27419 43.9L10.134 45.2022L9.697 46.8331L4.83718 45.5309L4.13125 48.1655L9.53911 49.6146L9.1021 51.2455L1.73975 49.2728Z" fill="black"/>
<path d="M4.59375 26.0625L8.46311 27.0993C9.22906 27.3045 9.79028 27.4903 10.1468 27.6566C10.5088 27.8196 10.8102 28.0419 11.0509 28.3235C11.2959 28.6062 11.4721 28.9435 11.5794 29.3356C11.6878 29.7232 11.686 30.1261 11.574 30.5443C11.4525 30.9977 11.2178 31.3807 10.8698 31.6932C10.5263 32.0069 10.12 32.2023 9.65112 32.2796C10.195 32.6093 10.57 33.0235 10.776 33.5222C10.9821 34.021 11.0102 34.5498 10.8604 35.1089C10.7425 35.5491 10.524 35.9506 10.2051 36.3133C9.89172 36.6729 9.52314 36.9303 9.09934 37.0857C8.68113 37.2378 8.20464 37.2729 7.66987 37.191C7.33468 37.1389 6.54303 36.9504 5.2949 36.6254L2 35.7425L4.59375 26.0625ZM6.11654 28.1973L5.51676 30.4358L6.79774 30.779C7.55929 30.9831 8.03545 31.0988 8.22623 31.1264C8.5714 31.1764 8.86399 31.1321 9.10399 30.9936C9.34958 30.8518 9.51425 30.6246 9.59799 30.3121C9.6782 30.0127 9.65943 29.7482 9.5417 29.5185C9.42954 29.2856 9.2159 29.1057 8.90076 28.9788C8.71297 28.9048 8.15907 28.7446 7.23905 28.4981L6.11654 28.1973ZM5.08505 32.0469L4.3915 34.6353L6.20072 35.1201C6.90504 35.3088 7.35716 35.4087 7.55706 35.4198C7.86174 35.4448 8.13146 35.3803 8.3662 35.2261C8.60652 35.0688 8.77268 34.8184 8.86468 34.4751C8.94253 34.1845 8.93815 33.9191 8.85154 33.6789C8.76494 33.4387 8.59976 33.2364 8.35601 33.072C8.11666 32.9087 7.55238 32.708 6.66317 32.4697L5.08505 32.0469Z" fill="black"/>
<path d="M11.0597 25.1303L8.93354 24.5606L8.67752 22.1353L4.80815 21.0985L3.42002 23.0832L1.34668 22.5277L7.71075 13.8579L9.77749 14.4117L11.0597 25.1303ZM8.48724 20.3363L8.11592 16.3868L5.84604 19.6286L8.48724 20.3363Z" fill="black"/>
<path d="M6.99843 7.35442L7.43544 5.72348L11.6482 6.85228L10.6149 10.7084C10.0994 10.9949 9.41132 11.1856 8.55078 11.2806C7.69582 11.3723 6.86996 11.3115 6.0732 11.098C5.06074 10.8267 4.23475 10.3789 3.59524 9.75462C2.95691 9.12592 2.55403 8.36688 2.38659 7.47748C2.22033 6.58368 2.26164 5.67237 2.51051 4.74355C2.78062 3.73549 3.23195 2.8963 3.86449 2.22598C4.49704 1.55565 5.27653 1.1205 6.20295 0.920519C6.90974 0.765484 7.72534 0.811816 8.64976 1.05951C9.85151 1.38152 10.7213 1.88587 11.2592 2.57257C11.8026 3.25604 12.0521 4.06833 12.0075 5.00944L9.96889 4.85244C9.95982 4.34045 9.80256 3.89728 9.49711 3.52292C9.19725 3.14533 8.76559 2.88105 8.20214 2.73007C7.34815 2.50125 6.5955 2.58974 5.94419 2.99554C5.29728 3.40252 4.8311 4.13866 4.54566 5.20394C4.23781 6.35286 4.26194 7.28407 4.61806 7.99756C4.97535 8.70664 5.56779 9.17206 6.39537 9.39381C6.80475 9.5035 7.23537 9.53396 7.68722 9.48518C8.14465 9.43318 8.5515 9.33224 8.90777 9.18237L9.23685 7.95421L6.99843 7.35442Z" fill="black"/>
<path d="M2.00674 116.17C2.27095 115.184 2.64017 114.396 3.11439 113.806C3.46659 113.372 3.88447 113.01 4.36802 112.719C4.85597 112.43 5.35201 112.252 5.85613 112.184C6.52762 112.09 7.25734 112.149 8.0453 112.36C9.47155 112.742 10.4931 113.49 11.11 114.604C11.7313 115.718 11.8309 117.064 11.4086 118.64C10.9899 120.202 10.2372 121.312 9.15051 121.969C8.06502 122.622 6.81135 122.758 5.3895 122.377C3.95004 121.991 2.92288 121.247 2.30802 120.143C1.69434 119.035 1.59391 117.711 2.00674 116.17ZM4.03835 116.644C3.74465 117.74 3.77484 118.639 4.12891 119.343C4.48416 120.042 5.05137 120.496 5.83052 120.705C6.60968 120.914 7.32287 120.805 7.97009 120.379C8.6229 119.95 9.09969 119.175 9.40047 118.052C9.6977 116.943 9.67514 116.05 9.33278 115.373C8.99482 114.697 8.42305 114.252 7.61749 114.036C6.81192 113.82 6.08831 113.923 5.44667 114.346C4.80621 114.764 4.33677 115.53 4.03835 116.644Z" fill="black"/>
</svg>
