<svg width="11" height="12" viewBox="0 0 11 12" fill="none" xmlns="http://www.w3.org/2000/svg">
<path d="M0.169189 6.05176C0.169189 5.03092 0.321859 4.17415 0.627197 3.48145C0.855062 2.97103 1.16496 2.51302 1.55688 2.10742C1.95337 1.70182 2.38631 1.40104 2.85571 1.20508C3.48006 0.940755 4.20011 0.808594 5.01587 0.808594C6.49243 0.808594 7.67277 1.2666 8.55688 2.18262C9.44556 3.09863 9.88989 4.3724 9.88989 6.00391C9.88989 7.62174 9.45011 8.88867 8.57056 9.80469C7.691 10.7161 6.51522 11.1719 5.04321 11.1719C3.55298 11.1719 2.36808 10.7184 1.48853 9.81152C0.608968 8.90007 0.169189 7.64681 0.169189 6.05176ZM2.25415 5.9834C2.25415 7.11816 2.51619 7.97949 3.04028 8.56738C3.56437 9.15072 4.22974 9.44238 5.03638 9.44238C5.84302 9.44238 6.50382 9.15299 7.0188 8.57422C7.53833 7.99089 7.7981 7.11816 7.7981 5.95605C7.7981 4.80762 7.54517 3.95085 7.03931 3.38574C6.538 2.82064 5.87036 2.53809 5.03638 2.53809C4.20239 2.53809 3.53019 2.8252 3.01978 3.39941C2.50936 3.96908 2.25415 4.8304 2.25415 5.9834Z" fill="black"/>
</svg>
