<svg width="11" height="12" viewBox="0 0 11 12" fill="none" xmlns="http://www.w3.org/2000/svg">
<path d="M0.962402 0.980469H4.96826C5.76123 0.980469 6.3514 1.01465 6.73877 1.08301C7.1307 1.14681 7.47933 1.28353 7.78467 1.49316C8.09456 1.7028 8.35205 1.98307 8.55713 2.33398C8.76221 2.68034 8.86475 3.06999 8.86475 3.50293C8.86475 3.97233 8.73714 4.40299 8.48193 4.79492C8.23128 5.18685 7.88949 5.48079 7.45654 5.67676C8.06722 5.85449 8.53662 6.15755 8.86475 6.58594C9.19287 7.01432 9.35693 7.5179 9.35693 8.09668C9.35693 8.55241 9.24984 8.99674 9.03564 9.42969C8.82601 9.85807 8.53662 10.2021 8.16748 10.4619C7.8029 10.7171 7.35173 10.8743 6.81396 10.9336C6.47673 10.9701 5.66325 10.9928 4.37354 11.002H0.962402V0.980469ZM2.98584 2.64844V4.96582H4.31201C5.10042 4.96582 5.59033 4.95443 5.78174 4.93164C6.12809 4.89062 6.39925 4.77214 6.59521 4.57617C6.79574 4.37565 6.896 4.11361 6.896 3.79004C6.896 3.48014 6.80941 3.22949 6.63623 3.03809C6.46761 2.84212 6.21468 2.72363 5.87744 2.68262C5.67692 2.65983 5.10042 2.64844 4.14795 2.64844H2.98584ZM2.98584 6.63379V9.31348H4.85889C5.58805 9.31348 6.05062 9.29297 6.24658 9.25195C6.54736 9.19727 6.79118 9.0651 6.97803 8.85547C7.16943 8.64128 7.26514 8.35645 7.26514 8.00098C7.26514 7.7002 7.19222 7.44499 7.04639 7.23535C6.90055 7.02572 6.68864 6.87305 6.41064 6.77734C6.13721 6.68164 5.5402 6.63379 4.61963 6.63379H2.98584Z" fill="black"/>
</svg>
