<svg width="11" height="12" viewBox="0 0 11 12" fill="none" xmlns="http://www.w3.org/2000/svg">
<path d="M0.96875 11.002V0.980469H5.22754C6.2985 0.980469 7.07552 1.07161 7.55859 1.25391C8.04622 1.43164 8.43587 1.75065 8.72754 2.21094C9.01921 2.67122 9.16504 3.19759 9.16504 3.79004C9.16504 4.54199 8.94401 5.16406 8.50195 5.65625C8.0599 6.14388 7.39909 6.4515 6.51953 6.5791C6.95703 6.83431 7.31706 7.11458 7.59961 7.41992C7.88672 7.72526 8.27181 8.26758 8.75488 9.04688L9.97852 11.002H7.55859L6.0957 8.82129C5.57617 8.04199 5.2207 7.55208 5.0293 7.35156C4.83789 7.14648 4.63509 7.00749 4.4209 6.93457C4.20671 6.8571 3.86719 6.81836 3.40234 6.81836H2.99219V11.002H0.96875ZM2.99219 5.21875H4.48926C5.45996 5.21875 6.06608 5.17773 6.30762 5.0957C6.54915 5.01367 6.73828 4.8724 6.875 4.67188C7.01172 4.47135 7.08008 4.2207 7.08008 3.91992C7.08008 3.58268 6.98893 3.31152 6.80664 3.10645C6.62891 2.89681 6.37598 2.76465 6.04785 2.70996C5.88379 2.68717 5.3916 2.67578 4.57129 2.67578H2.99219V5.21875Z" fill="black"/>
</svg>
