<svg width="11" height="12" viewBox="0 0 11 12" fill="none" xmlns="http://www.w3.org/2000/svg">
<path d="M7.38696 7.31641L9.34888 7.93848C9.0481 9.03223 8.54679 9.8457 7.84497 10.3789C7.14771 10.9076 6.26131 11.1719 5.18579 11.1719C3.85506 11.1719 2.76131 10.7184 1.90454 9.81152C1.04777 8.90007 0.619385 7.65592 0.619385 6.0791C0.619385 4.41113 1.05005 3.11686 1.91138 2.19629C2.77271 1.27116 3.90519 0.808594 5.30884 0.808594C6.53475 0.808594 7.53052 1.1709 8.29614 1.89551C8.75187 2.32389 9.09367 2.93913 9.32153 3.74121L7.3186 4.21973C7.20011 3.7002 6.95174 3.29004 6.57349 2.98926C6.19979 2.68848 5.74406 2.53809 5.2063 2.53809C4.46346 2.53809 3.85962 2.80469 3.39478 3.33789C2.93449 3.87109 2.70435 4.7347 2.70435 5.92871C2.70435 7.19564 2.93221 8.09798 3.38794 8.63574C3.84367 9.1735 4.43612 9.44238 5.16528 9.44238C5.70304 9.44238 6.16561 9.27148 6.55298 8.92969C6.94035 8.58789 7.21834 8.05013 7.38696 7.31641Z" fill="black"/>
</svg>
