<svg width="11" height="12" viewBox="0 0 11 12" fill="none" xmlns="http://www.w3.org/2000/svg">
<path d="M1.35986 11.002V0.980469H4.60693C5.8374 0.980469 6.63949 1.0306 7.01318 1.13086C7.5874 1.28125 8.0682 1.60938 8.45557 2.11523C8.84294 2.61654 9.03662 3.26595 9.03662 4.06348C9.03662 4.67871 8.92497 5.19596 8.70166 5.61523C8.47835 6.03451 8.19352 6.36491 7.84717 6.60645C7.50537 6.84342 7.15674 7.00065 6.80127 7.07812C6.3182 7.17383 5.61865 7.22168 4.70264 7.22168H3.3833V11.002H1.35986ZM3.3833 2.67578V5.51953H4.49072C5.28825 5.51953 5.82145 5.46712 6.09033 5.3623C6.35921 5.25749 6.56885 5.09342 6.71924 4.87012C6.87419 4.64681 6.95166 4.38704 6.95166 4.09082C6.95166 3.72624 6.84456 3.42546 6.63037 3.18848C6.41618 2.9515 6.14502 2.80339 5.81689 2.74414C5.57536 2.69857 5.09001 2.67578 4.36084 2.67578H3.3833Z" fill="black"/>
</svg>
