<svg width="11" height="12" viewBox="0 0 11 12" fill="none" xmlns="http://www.w3.org/2000/svg">
<path d="M5.24072 7.31641V5.62793H9.60205V9.62012C9.17822 10.0303 8.56299 10.3926 7.75635 10.707C6.95426 11.0169 6.14079 11.1719 5.31592 11.1719C4.26774 11.1719 3.354 10.9531 2.57471 10.5156C1.79541 10.0736 1.2098 9.44466 0.817871 8.62891C0.425944 7.80859 0.22998 6.91764 0.22998 5.95605C0.22998 4.91243 0.44873 3.98503 0.88623 3.17383C1.32373 2.36263 1.96403 1.74056 2.80713 1.30762C3.44971 0.974935 4.24951 0.808594 5.20654 0.808594C6.45068 0.808594 7.42139 1.07064 8.11865 1.59473C8.82048 2.11426 9.27165 2.83431 9.47217 3.75488L7.4624 4.13086C7.32113 3.63867 7.05452 3.2513 6.6626 2.96875C6.27523 2.68164 5.78988 2.53809 5.20654 2.53809C4.32243 2.53809 3.61833 2.81836 3.09424 3.37891C2.57471 3.93945 2.31494 4.77116 2.31494 5.87402C2.31494 7.06348 2.57926 7.95671 3.10791 8.55371C3.63656 9.14616 4.32926 9.44238 5.18604 9.44238C5.60986 9.44238 6.03369 9.36035 6.45752 9.19629C6.8859 9.02767 7.25277 8.82487 7.55811 8.58789V7.31641H5.24072Z" fill="black"/>
</svg>
